<svg width="87" height="24" viewBox="0 0 87 24" fill="none" xmlns="http://www.w3.org/2000/svg">
<path d="M13.656 2.008C13.592 2.728 13.544 3.424 13.512 4.096C13.496 4.768 13.488 5.288 13.488 5.656C13.488 6.008 13.496 6.344 13.512 6.664C13.528 6.984 13.544 7.256 13.56 7.48H13.008C12.8 6.232 12.512 5.256 12.144 4.552C11.776 3.832 11.32 3.32 10.776 3.016C10.248 2.712 9.616 2.56 8.88 2.56H8.088C7.624 2.56 7.272 2.6 7.032 2.68C6.792 2.76 6.632 2.92 6.552 3.16C6.472 3.4 6.432 3.768 6.432 4.264V16.312C6.432 16.936 6.496 17.4 6.624 17.704C6.752 18.008 7 18.208 7.368 18.304C7.736 18.4 8.28 18.456 9 18.472V19C8.504 18.984 7.864 18.968 7.08 18.952C6.296 18.936 5.472 18.928 4.608 18.928C3.92 18.928 3.248 18.936 2.592 18.952C1.936 18.968 1.344 18.984 0.816 19V18.52C1.328 18.488 1.712 18.424 1.968 18.328C2.224 18.232 2.392 18.04 2.472 17.752C2.568 17.464 2.616 17.032 2.616 16.456V4.552C2.616 3.96 2.568 3.528 2.472 3.256C2.392 2.968 2.216 2.776 1.944 2.68C1.688 2.568 1.312 2.504 0.816 2.488V2.008C1.472 2.024 2.168 2.04 2.904 2.056C3.64 2.056 4.368 2.064 5.088 2.08C5.808 2.08 6.48 2.08 7.104 2.08C7.728 2.08 8.24 2.08 8.64 2.08C9.376 2.08 10.208 2.08 11.136 2.08C12.08 2.064 12.92 2.04 13.656 2.008ZM10.08 10.312C10.08 10.312 10.08 10.392 10.08 10.552C10.08 10.712 10.08 10.792 10.08 10.792H5.712C5.712 10.792 5.712 10.712 5.712 10.552C5.712 10.392 5.712 10.312 5.712 10.312H10.08ZM10.68 7.144C10.616 8.056 10.584 8.752 10.584 9.232C10.6 9.712 10.608 10.152 10.608 10.552C10.608 10.952 10.616 11.392 10.632 11.872C10.648 12.352 10.688 13.048 10.752 13.96H10.2C10.104 13.4 9.952 12.88 9.744 12.4C9.536 11.92 9.232 11.536 8.832 11.248C8.432 10.944 7.912 10.792 7.272 10.792V10.312C7.752 10.312 8.152 10.216 8.472 10.024C8.808 9.816 9.088 9.552 9.312 9.232C9.536 8.896 9.712 8.544 9.84 8.176C9.968 7.808 10.064 7.464 10.128 7.144H10.68ZM23.0351 6.256C23.5471 6.256 23.9631 6.368 24.2831 6.592C24.6031 6.8 24.8351 7.072 24.9791 7.408C25.1391 7.744 25.2191 8.096 25.2191 8.464C25.2191 9.056 25.0431 9.544 24.6911 9.928C24.3551 10.296 23.9071 10.48 23.3471 10.48C22.7871 10.48 22.3471 10.344 22.0271 10.072C21.7231 9.784 21.5711 9.408 21.5711 8.944C21.5711 8.496 21.6671 8.128 21.8591 7.84C22.0671 7.536 22.3231 7.28 22.6271 7.072C22.4031 7.008 22.1791 7.016 21.9551 7.096C21.6511 7.144 21.3631 7.272 21.0911 7.48C20.8191 7.672 20.5871 7.92 20.3951 8.224C20.2031 8.512 20.0511 8.832 19.9391 9.184C19.8271 9.52 19.7711 9.848 19.7711 10.168V16.528C19.7711 17.296 19.9551 17.816 20.3231 18.088C20.7071 18.36 21.2751 18.496 22.0271 18.496V19C21.6591 18.984 21.1231 18.968 20.4191 18.952C19.7151 18.92 18.9791 18.904 18.2111 18.904C17.5711 18.904 16.9231 18.92 16.2671 18.952C15.6111 18.968 15.1151 18.984 14.7791 19V18.496C15.3391 18.496 15.7311 18.376 15.9551 18.136C16.1951 17.896 16.3151 17.44 16.3151 16.768V9.208C16.3151 8.488 16.2031 7.96 15.9791 7.624C15.7711 7.272 15.3711 7.096 14.7791 7.096V6.592C15.2911 6.64 15.7871 6.664 16.2671 6.664C16.9391 6.664 17.5631 6.64 18.1391 6.592C18.7311 6.528 19.2751 6.44 19.7711 6.328V8.56C19.9631 8.128 20.2191 7.736 20.5391 7.384C20.8591 7.032 21.2271 6.76 21.6431 6.568C22.0591 6.36 22.5231 6.256 23.0351 6.256ZM29.1023 0.399999C29.7743 0.399999 30.3023 0.567999 30.6863 0.904C31.0863 1.224 31.2863 1.672 31.2863 2.248C31.2863 2.824 31.0863 3.28 30.6863 3.616C30.3023 3.936 29.7743 4.096 29.1023 4.096C28.4303 4.096 27.8943 3.936 27.4943 3.616C27.1103 3.28 26.9183 2.824 26.9183 2.248C26.9183 1.672 27.1103 1.224 27.4943 0.904C27.8943 0.567999 28.4303 0.399999 29.1023 0.399999ZM30.9743 6.328V16.768C30.9743 17.44 31.0863 17.896 31.3103 18.136C31.5503 18.376 31.9503 18.496 32.5103 18.496V19C32.2223 18.984 31.7743 18.968 31.1663 18.952C30.5583 18.92 29.9423 18.904 29.3183 18.904C28.6943 18.904 28.0623 18.92 27.4223 18.952C26.7823 18.968 26.3023 18.984 25.9823 19V18.496C26.5423 18.496 26.9343 18.376 27.1583 18.136C27.3983 17.896 27.5183 17.44 27.5183 16.768V9.208C27.5183 8.488 27.4063 7.96 27.1823 7.624C26.9743 7.272 26.5743 7.096 25.9823 7.096V6.592C26.4943 6.64 26.9903 6.664 27.4703 6.664C28.1423 6.664 28.7663 6.64 29.3423 6.592C29.9343 6.528 30.4783 6.44 30.9743 6.328ZM38.3046 6.256C38.9766 6.256 39.5606 6.344 40.0566 6.52C40.5686 6.68 40.9366 6.84 41.1606 7C41.7046 7.368 42.0406 7.128 42.1686 6.28H42.6726C42.6406 6.728 42.6166 7.28 42.6006 7.936C42.5846 8.576 42.5766 9.432 42.5766 10.504H42.0726C41.9926 9.912 41.8406 9.328 41.6166 8.752C41.3926 8.176 41.0646 7.704 40.6326 7.336C40.2166 6.968 39.6726 6.784 39.0006 6.784C38.5366 6.784 38.1446 6.92 37.8246 7.192C37.5046 7.448 37.3446 7.824 37.3446 8.32C37.3446 8.8 37.4886 9.224 37.7766 9.592C38.0646 9.944 38.4326 10.288 38.8806 10.624C39.3446 10.944 39.8246 11.288 40.3206 11.656C40.8486 12.056 41.3286 12.456 41.7606 12.856C42.1926 13.24 42.5366 13.664 42.7926 14.128C43.0486 14.592 43.1766 15.144 43.1766 15.784C43.1766 16.504 42.9686 17.136 42.5526 17.68C42.1366 18.208 41.5846 18.616 40.8966 18.904C40.2246 19.192 39.4726 19.336 38.6406 19.336C38.1606 19.336 37.7286 19.288 37.3446 19.192C36.9766 19.096 36.6566 18.976 36.3846 18.832C36.1766 18.736 35.9766 18.648 35.7846 18.568C35.6086 18.472 35.4406 18.392 35.2806 18.328C35.1206 18.28 34.9766 18.336 34.8486 18.496C34.7366 18.656 34.6486 18.88 34.5846 19.168H34.0806C34.1126 18.656 34.1366 18.032 34.1526 17.296C34.1686 16.56 34.1766 15.584 34.1766 14.368H34.6806C34.7766 15.232 34.9526 16 35.2086 16.672C35.4646 17.328 35.8086 17.848 36.2406 18.232C36.6886 18.6 37.2486 18.784 37.9206 18.784C38.1926 18.784 38.4566 18.728 38.7126 18.616C38.9686 18.504 39.1766 18.32 39.3366 18.064C39.5126 17.808 39.6006 17.48 39.6006 17.08C39.6006 16.376 39.3686 15.792 38.9046 15.328C38.4566 14.864 37.8806 14.36 37.1766 13.816C36.6646 13.4 36.1766 12.992 35.7126 12.592C35.2646 12.176 34.8966 11.728 34.6086 11.248C34.3206 10.752 34.1766 10.192 34.1766 9.568C34.1766 8.848 34.3686 8.24 34.7526 7.744C35.1366 7.248 35.6406 6.88 36.2646 6.64C36.9046 6.384 37.5846 6.256 38.3046 6.256ZM49.5345 6.328V20.968C49.5345 21.72 49.7265 22.216 50.1105 22.456C50.4945 22.712 51.0225 22.84 51.6945 22.84V23.344C51.2785 23.328 50.7025 23.304 49.9665 23.272C49.2465 23.256 48.4785 23.248 47.6625 23.248C47.0705 23.248 46.4865 23.256 45.9105 23.272C45.3505 23.304 44.9265 23.328 44.6385 23.344V22.84C45.1665 22.84 45.5345 22.728 45.7425 22.504C45.9665 22.28 46.0785 21.848 46.0785 21.208V9.208C46.0785 8.488 45.9665 7.96 45.7425 7.624C45.5185 7.272 45.1185 7.096 44.5425 7.096V6.592C45.0545 6.64 45.5505 6.664 46.0305 6.664C46.6865 6.664 47.3105 6.64 47.9025 6.592C48.4945 6.528 49.0385 6.44 49.5345 6.328ZM53.2545 6.256C54.0705 6.256 54.7985 6.48 55.4385 6.928C56.0785 7.36 56.5905 8.024 56.9745 8.92C57.3585 9.8 57.5505 10.904 57.5505 12.232C57.5505 13.4 57.4145 14.424 57.1425 15.304C56.8865 16.184 56.5105 16.928 56.0145 17.536C55.5345 18.128 54.9505 18.576 54.2625 18.88C53.5905 19.184 52.8305 19.336 51.9825 19.336C51.3585 19.336 50.7905 19.224 50.2785 19C49.7665 18.792 49.3745 18.488 49.1025 18.088L49.3425 17.776C49.5025 18.064 49.7265 18.288 50.0145 18.448C50.3185 18.608 50.6625 18.688 51.0465 18.688C51.7665 18.688 52.3345 18.448 52.7505 17.968C53.1665 17.472 53.4625 16.784 53.6385 15.904C53.8305 15.008 53.9265 13.944 53.9265 12.712C53.9265 11.336 53.8385 10.256 53.6625 9.472C53.4865 8.688 53.2465 8.128 52.9425 7.792C52.6385 7.456 52.2705 7.288 51.8385 7.288C51.2625 7.288 50.7345 7.512 50.2545 7.96C49.7905 8.408 49.5265 9.048 49.4625 9.88L49.3425 9.04C49.6305 8.128 50.1185 7.44 50.8065 6.976C51.5105 6.496 52.3265 6.256 53.2545 6.256ZM65.2211 6.256C66.6291 6.256 67.7331 6.672 68.5331 7.504C69.3331 8.336 69.7331 9.696 69.7331 11.584H61.8371L61.7891 11.128H66.7091C66.7251 10.344 66.6771 9.624 66.5651 8.968C66.4531 8.296 66.2771 7.76 66.0371 7.36C65.7971 6.96 65.4771 6.76 65.0771 6.76C64.5171 6.76 64.0371 7.112 63.6371 7.816C63.2531 8.52 63.0211 9.688 62.9411 11.32L63.0131 11.464C62.9971 11.656 62.9811 11.856 62.9651 12.064C62.9651 12.272 62.9651 12.488 62.9651 12.712C62.9651 13.816 63.1171 14.712 63.4211 15.4C63.7411 16.088 64.1411 16.592 64.6211 16.912C65.1011 17.216 65.5891 17.368 66.0851 17.368C66.4211 17.368 66.7651 17.32 67.1171 17.224C67.4851 17.112 67.8531 16.92 68.2211 16.648C68.5891 16.36 68.9331 15.96 69.2531 15.448L69.6851 15.592C69.4931 16.2 69.1891 16.792 68.7731 17.368C68.3571 17.944 67.8291 18.416 67.1891 18.784C66.5491 19.152 65.7811 19.336 64.8851 19.336C63.7971 19.336 62.8371 19.104 62.0051 18.64C61.1731 18.176 60.5171 17.472 60.0371 16.528C59.5731 15.584 59.3411 14.384 59.3411 12.928C59.3411 11.44 59.5891 10.2 60.0851 9.208C60.5971 8.216 61.2931 7.48 62.1731 7C63.0691 6.504 64.0851 6.256 65.2211 6.256ZM75.8749 6.256C76.5469 6.256 77.1309 6.344 77.6269 6.52C78.1389 6.68 78.5069 6.84 78.7309 7C79.2749 7.368 79.6109 7.128 79.7389 6.28H80.2429C80.2109 6.728 80.1869 7.28 80.1709 7.936C80.1549 8.576 80.1469 9.432 80.1469 10.504H79.6429C79.5629 9.912 79.4109 9.328 79.1869 8.752C78.9629 8.176 78.6349 7.704 78.2029 7.336C77.7869 6.968 77.2429 6.784 76.5709 6.784C76.1069 6.784 75.7149 6.92 75.3949 7.192C75.0749 7.448 74.9149 7.824 74.9149 8.32C74.9149 8.8 75.0589 9.224 75.3469 9.592C75.6349 9.944 76.0029 10.288 76.4509 10.624C76.9149 10.944 77.3949 11.288 77.8909 11.656C78.4189 12.056 78.8989 12.456 79.3309 12.856C79.7629 13.24 80.1069 13.664 80.3629 14.128C80.6189 14.592 80.7469 15.144 80.7469 15.784C80.7469 16.504 80.5389 17.136 80.1229 17.68C79.7069 18.208 79.1549 18.616 78.4669 18.904C77.7949 19.192 77.0429 19.336 76.2109 19.336C75.7309 19.336 75.2989 19.288 74.9149 19.192C74.5469 19.096 74.2269 18.976 73.9549 18.832C73.7469 18.736 73.5469 18.648 73.3549 18.568C73.1789 18.472 73.0109 18.392 72.8509 18.328C72.6909 18.28 72.5469 18.336 72.4189 18.496C72.3069 18.656 72.2189 18.88 72.1549 19.168H71.6509C71.6829 18.656 71.7069 18.032 71.7229 17.296C71.7389 16.56 71.7469 15.584 71.7469 14.368H72.2509C72.3469 15.232 72.5229 16 72.7789 16.672C73.0349 17.328 73.3789 17.848 73.8109 18.232C74.2589 18.6 74.8189 18.784 75.4909 18.784C75.7629 18.784 76.0269 18.728 76.2829 18.616C76.5389 18.504 76.7469 18.32 76.9069 18.064C77.0829 17.808 77.1709 17.48 77.1709 17.08C77.1709 16.376 76.9389 15.792 76.4749 15.328C76.0269 14.864 75.4509 14.36 74.7469 13.816C74.2349 13.4 73.7469 12.992 73.2829 12.592C72.8349 12.176 72.4669 11.728 72.1789 11.248C71.8909 10.752 71.7469 10.192 71.7469 9.568C71.7469 8.848 71.9389 8.24 72.3229 7.744C72.7069 7.248 73.2109 6.88 73.8349 6.64C74.4749 6.384 75.1549 6.256 75.8749 6.256ZM84.8728 15.64C85.4968 15.64 85.9928 15.808 86.3608 16.144C86.7288 16.464 86.9128 16.912 86.9128 17.488C86.9128 18.064 86.7288 18.52 86.3608 18.856C85.9928 19.176 85.4968 19.336 84.8728 19.336C84.2488 19.336 83.7528 19.176 83.3848 18.856C83.0168 18.52 82.8328 18.064 82.8328 17.488C82.8328 16.912 83.0168 16.464 83.3848 16.144C83.7528 15.808 84.2488 15.64 84.8728 15.64Z" fill="#10375C"/>
</svg>
